PathFileType   4   (X/Y/Z)
DataRate	CameraRate	NumFrames	NumMarkers	Units	OrigDataRate	OrigDataStartFrame	OrigNumFrames
120.0	120.0	5	37	mm	120.0	32	126
Frame#	Time	midhip	hip_r	hip_l	knee_r	knee_l	ankle_r	ankle_l	midasis	asis_r	asis_l	psis_r	psis_l	epicondLat_r	epicondLat_l	epicondMed_r	epicondMed_l	malleolusLat_r	malleolusLat_l	malleolusMedv_r	malleolusMedv_l	neck	subclavicle_r	subclavicle_l	sternalnotch	xyphoidprocess	thighwand_r	thighwand_l	upperleg1_r	upperleg1_l	upperleg2_r	upperleg2_l	shankwand_r	shankwand_l	lowerleg1_r	lowerleg1_l	toe_r	toe_l
 	 	X1	Y1	Z1	X2	Y2	Z2	X3	Y3	Z3	X4	Y4	Z4	X5	Y5	Z5	X6	Y6	Z6	X7	Y7	Z7	X8	Y8	Z8	X9	Y9	Z9	X10	Y10	Z10	X11	Y11	Z11	X12	Y12	Z12	X13	Y13	Z13	X14	Y14	Z14	X15	Y15	Z15	X16	Y16	Z16	X17	Y17	Z17	X18	Y18	Z18	X19	Y19	Z19	X20	Y20	Z20	X21	Y21	Z21	X22	Y22	Z22	X23	Y23	Z23	X24	Y24	Z24	X25	Y25	Z25	X26	Y26	Z26	X27	Y27	Z27	X28	Y28	Z28	X29	Y29	Z29	X30	Y30	Z30	X31	Y31	Z31	X32	Y32	Z32	X33	Y33	Z33	X34	Y34	Z34	X35	Y35	Z35	X36	Y36	Z36	X37	Y37	Z37

	32	0.40833	1573.773	901.432	-249.581	1568.460	888.289	-197.500	1568.329	887.100	-304.063	1740.984	504.888	-181.552	1537.541	475.785	-304.962	1648.550	102.208	-177.092	1438.830	69.817	-280.432	1647.055	984.579	-251.959	1647.183	985.734	-148.389	1646.927	983.424	-355.529	1449.114	1009.158	-207.932	1447.451	1012.308	-293.438	1746.225	509.704	-122.479	1548.110	475.122	-363.512	1742.060	513.264	-236.559	1517.758	481.482	-257.463	1639.996	104.580	-140.144	1440.110	67.126	-319.820	1647.465	110.260	-209.294	1445.011	78.158	-250.810	1509.615	1466.624	-248.207	1616.755	1394.095	-175.105	1600.423	1397.806	-330.613	1595.908	1397.224	-255.482	1634.407	1196.502	-271.099	1733.278	614.526	-37.337	1691.699	593.811	-302.311	1735.596	679.471	-107.610	1626.807	657.665	-351.200	1764.571	603.517	-128.774	1608.280	571.943	-345.796	1661.900	180.977	-72.212	1563.664	158.447	-270.317	1663.328	238.558	-134.801	1510.050	218.306	-292.743	1761.396	69.136	-177.699	1566.082	41.281	-280.076
	33	0.41667	1581.827	899.392	-249.857	1577.625	887.349	-197.258	1576.986	885.959	-303.817	1752.723	504.908	-182.087	1541.531	475.111	-304.892	1677.040	98.168	-177.481	1439.012	70.028	-280.379	1655.908	983.577	-252.272	1656.530	984.927	-148.680	1655.287	982.226	-355.865	1458.227	1008.040	-207.461	1456.077	1011.213	-292.940	1757.911	509.627	-123.001	1552.159	474.347	-363.431	1752.889	513.027	-236.978	1522.120	481.247	-257.041	1668.186	100.233	-140.585	1440.316	67.315	-319.764	1676.006	106.206	-209.767	1445.247	78.345	-250.744	1518.822	1465.628	-247.718	1626.033	1392.821	-174.901	1609.356	1396.873	-330.361	1605.010	1396.142	-255.223	1643.221	1195.404	-271.339	1744.115	614.362	-37.794	1697.182	591.821	-302.024	1745.938	679.271	-108.066	1632.905	656.309	-350.924	1775.244	603.405	-129.289	1613.500	570.707	-345.461	1686.502	177.591	-72.650	1564.470	157.459	-270.153	1685.962	235.094	-135.310	1511.578	217.755	-292.686	1791.166	69.443	-178.011	1566.019	41.209	-280.018
	34	0.42500	1588.257	895.437	-250.148	1586.859	886.297	-197.108	1585.677	884.743	-303.660	1764.296	504.662	-182.570	1545.645	474.418	-304.813	1705.465	94.565	-177.838	1439.245	70.265	-280.343	1664.815	982.477	-252.670	1665.964	983.988	-149.073	1663.666	980.966	-356.266	1467.415	1006.841	-206.961	1464.743	1010.026	-292.417	1769.314	509.247	-123.459	1556.270	473.545	-363.350	1763.262	512.541	-237.422	1526.887	480.674	-256.527	1696.338	96.300	-140.991	1440.552	67.536	-319.727	1704.383	102.497	-210.084	1445.536	78.550	-250.693	1528.104	1464.529	-247.169	1635.323	1391.436	-174.635	1618.390	1395.768	-330.078	1614.169	1394.921	-254.924	1652.039	1194.151	-271.434	1754.535	613.874	-38.199	1702.702	589.789	-301.900	1756.251	678.813	-108.530	1638.831	654.824	-350.701	1785.620	602.944	-129.768	1618.779	569.406	-345.169	1711.068	174.427	-73.057	1565.373	156.492	-270.053	1708.564	231.778	-135.763	1513.190	217.248	-292.659	1820.663	70.140	-178.303	1565.964	41.127	-279.962
	35	0.43333	1597.363	894.286	-250.378	1596.182	885.146	-197.052	1594.427	883.464	-303.595	1775.714	504.171	-182.983	1549.878	473.705	-304.708	1733.642	91.449	-178.197	1439.525	70.536	-280.328	1673.781	981.305	-253.148	1675.488	982.941	-149.557	1672.075	979.668	-356.740	1476.671	1005.557	-206.435	1473.459	1008.735	-291.876	1780.451	508.587	-123.836	1560.414	472.719	-363.260	1773.534	511.688	-237.707	1531.563	480.228	-256.189	1724.323	92.826	-141.383	1440.803	67.804	-319.713	1732.324	99.203	-210.409	1445.851	78.788	-250.652	1537.432	1463.317	-246.628	1644.599	1389.969	-174.330	1627.442	1394.596	-329.765	1623.331	1393.625	-254.594	1660.866	1192.826	-271.504	1764.568	613.085	-38.541	1708.236	587.720	-302.004	1766.376	678.046	-108.970	1644.879	653.352	-350.642	1795.747	602.202	-130.093	1624.050	568.095	-345.055	1735.605	171.530	-73.446	1566.356	155.560	-270.048	1731.068	228.612	-136.168	1514.894	216.796	-292.692	1849.817	71.283	-178.619	1565.937	41.057	-279.938
	36	0.44167	1606.682	893.196	-250.587	1605.614	883.909	-197.081	1603.257	882.131	-303.610	1787.008	503.471	-183.311	1554.224	472.995	-304.612	1761.507	88.850	-178.587	1439.842	70.862	-280.334	1682.812	980.083	-253.700	1685.104	981.812	-150.117	1680.520	978.355	-357.283	1485.999	1004.179	-205.896	1482.238	1007.335	-291.324	1791.359	507.687	-124.121	1564.578	471.898	-363.194	1783.972	510.412	-237.744	1536.600	479.478	-256.611	1752.093	89.849	-141.785	1441.062	68.137	-319.721	1759.983	96.497	-210.847	1446.159	79.098	-250.688	1546.787	1462.011	-246.027	1653.971	1388.592	-173.996	1636.531	1393.372	-329.395	1632.558	1392.334	-254.218	1669.954	1191.530	-271.381	1774.269	612.028	-38.801	1713.785	585.636	-302.366	1775.970	677.019	-109.353	1651.098	652.002	-350.747	1805.650	601.199	-130.266	1629.666	566.871	-345.331	1760.119	168.948	-73.812	1567.415	154.680	-270.136	1753.458	225.707	-136.516	1516.559	216.348	-292.760	1878.560	72.917	-179.023	1565.949	41.018	-279.959
